<?xml version="1.0" standalone="no"?>
<!DOCTYPE svg PUBLIC "-//W3C//DTD SVG 20010904//EN"
 "http://www.w3.org/TR/2001/REC-SVG-20010904/DTD/svg10.dtd">
<svg version="1.0" xmlns="http://www.w3.org/2000/svg"
 width="302.000000pt" height="302.000000pt" viewBox="0 0 302.000000 302.000000"
 preserveAspectRatio="xMidYMid meet">
<metadata>
Created by potrace 1.14, written by Peter Selinger 2001-2017
</metadata>
<g transform="translate(0.000000,302.000000) scale(0.100000,-0.100000)"
fill="#000000" stroke="none">
<path d="M1369 3016 c-2 -2 -31 -7 -64 -10 -226 -26 -490 -133 -692 -282 -193
-143 -365 -352 -467 -567 -40 -84 -100 -260 -110 -321 -3 -21 -8 -42 -11 -46
-11 -17 -20 -155 -19 -290 1 -146 7 -225 24 -290 5 -19 11 -46 13 -60 9 -49
68 -213 104 -289 175 -366 499 -654 878 -779 119 -40 203 -60 300 -71 82 -10
356 -7 410 4 17 3 68 15 115 25 546 122 987 555 1124 1105 34 137 37 157 40
340 3 138 -1 203 -18 300 -52 284 -202 570 -411 781 -226 230 -489 369 -810
431 -69 13 -396 28 -406 19z"/>
</g>
</svg>
