<svg width="32" height="31" viewBox="0 0 32 31" fill="none" xmlns="http://www.w3.org/2000/svg">
<path fill-rule="evenodd" clip-rule="evenodd" d="M15.9985 0C7.16437 0 0 7.11518 0 15.8928C0 22.9133 4.58406 28.8704 10.942 30.9728C11.7425 31.1182 12.0343 30.6275 12.0343 30.206C12.0343 29.8284 12.0205 28.8294 12.0126 27.5035C7.56218 28.4635 6.62317 25.3728 6.62317 25.3728C5.89534 23.5367 4.84632 23.0479 4.84632 23.0479C3.39361 22.0625 4.95633 22.0821 4.95633 22.0821C6.56227 22.1943 7.40698 23.7201 7.40698 23.7201C8.83416 26.1484 11.1522 25.4469 12.0637 25.0401C12.2091 24.0138 12.6226 23.3133 13.0793 22.9162C9.52663 22.5142 5.79122 21.1513 5.79122 15.0616C5.79122 13.3259 6.41494 11.9084 7.43842 10.7972C7.27341 10.3952 6.72434 8.77955 7.59557 6.59125C7.59557 6.59125 8.93827 6.16393 11.995 8.21954C13.2709 7.86735 14.6401 7.69174 16.0005 7.68491C17.3599 7.69174 18.7281 7.86735 20.006 8.21954C23.0607 6.16393 24.4015 6.59125 24.4015 6.59125C25.2747 8.77955 24.7256 10.3952 24.5616 10.7972C25.587 11.9084 26.2058 13.3259 26.2058 15.0616C26.2058 21.1669 22.4645 22.5103 18.901 22.9035C19.4746 23.3943 19.9864 24.364 19.9864 25.8469C19.9864 27.9708 19.9667 29.685 19.9667 30.206C19.9667 30.6314 20.2555 31.126 21.0668 30.9709C27.4199 28.8645 32 22.9123 32 15.8928C32 7.11518 24.8356 0 15.9985 0Z" fill="#6E5494"/>
</svg>
