<svg width="32" height="24" viewBox="0 0 32 24" fill="none" xmlns="http://www.w3.org/2000/svg">
<g clip-path="url(#clip0)">
<path d="M28 0H4V24H28V0Z" fill="#ECEFF1"/>
<path d="M16 14.524L28 24V5.29199L16 14.524Z" fill="#CFD8DC"/>
<path d="M29 0H28L16 9.476L4 0H3C2.20442 0.000212071 1.44148 0.316349 0.878914 0.878912C0.316351 1.44148 0.000212071 2.20442 0 3V21C0.000212071 21.7956 0.316351 22.5585 0.878914 23.1211C1.44148 23.6837 2.20442 23.9998 3 24H4V5.292L16 14.5216L28 5.2896V24H29C29.7956 23.9998 30.5585 23.6837 31.1211 23.1211C31.6837 22.5585 31.9998 21.7956 32 21V3C31.9998 2.20442 31.6837 1.44148 31.1211 0.878912C30.5585 0.316349 29.7956 0.000212071 29 0Z" fill="#F44336"/>
</g>
<defs>
<clipPath id="clip0">
<rect width="32" height="24" fill="white"/>
</clipPath>
</defs>
</svg>
