<svg width="32" height="32" viewBox="0 0 32 32" fill="none" xmlns="http://www.w3.org/2000/svg">
<path d="M27.3128 0H4.6872C3.44453 0.00148201 2.25319 0.495786 1.37449 1.37449C0.495786 2.25319 0.00148201 3.44453 0 4.6872L0 27.3128C0.00148201 28.5555 0.495786 29.7468 1.37449 30.6255C2.25319 31.5042 3.44453 31.9985 4.6872 32H27.3128C28.5555 31.9985 29.7468 31.5042 30.6255 30.6255C31.5042 29.7468 31.9985 28.5555 32 27.3128V4.6872C31.9985 3.44453 31.5042 2.25319 30.6255 1.37449C29.7468 0.495786 28.5555 0.00148201 27.3128 0V0ZM11.3128 25.3752H7.5624V12.2504H11.3128V25.3752ZM11.3128 10.3752H7.5624V6.6248H11.3128V10.3752ZM24.4376 25.3752H20.6872V17.8752C20.6771 17.3847 20.4751 16.9177 20.1246 16.5743C19.7741 16.231 19.303 16.0387 18.8124 16.0387C18.3218 16.0387 17.8507 16.231 17.5002 16.5743C17.1497 16.9177 16.9477 17.3847 16.9376 17.8752V25.3752H13.1872V12.2504H16.9376V12.96C17.8253 12.5578 18.778 12.3186 19.7504 12.2536C21.0261 12.3109 22.2293 12.8631 23.1044 13.7931C23.9796 14.7231 24.4578 15.9576 24.4376 17.2344V25.3752Z" fill="#007AB9"/>
</svg>
